<?xml version="1.0" standalone="no"?>
<!DOCTYPE svg PUBLIC "-//W3C//DTD SVG 20010904//EN"
 "http://www.w3.org/TR/2001/REC-SVG-20010904/DTD/svg10.dtd">
<svg version="1.0" xmlns="http://www.w3.org/2000/svg"
 width="512.000000pt" height="512.000000pt" viewBox="0 0 512.000000 512.000000"
 preserveAspectRatio="xMidYMid meet">

<g transform="translate(0.000000,512.000000) scale(0.100000,-0.100000)"
fill="#000000" stroke="none">
<path d="M185 5107 c-126 -50 -189 -155 -171 -283 11 -80 64 -151 142 -190 55
-27 165 -26 220 3 79 42 144 145 144 228 0 84 -66 187 -144 227 -48 25 -148
33 -191 15z"/>
<path d="M935 5104 c-138 -49 -204 -214 -141 -350 53 -114 188 -171 307 -129
144 51 209 203 148 345 -51 118 -192 178 -314 134z"/>
<path d="M1719 5107 c-60 -23 -105 -55 -131 -94 -90 -136 -45 -308 98 -379 55
-27 165 -26 220 3 79 42 144 145 144 228 0 83 -66 187 -144 227 -50 26 -139
33 -187 15z"/>
<path d="M2465 5104 c-140 -49 -206 -218 -139 -352 80 -160 296 -190 414 -56
45 52 62 99 62 171 1 174 -173 295 -337 237z"/>
<path d="M967 4339 c-118 -28 -196 -123 -197 -239 0 -77 14 -120 57 -170 95
-110 254 -121 363 -23 85 77 107 193 55 299 -49 101 -171 159 -278 133z"/>
<path d="M1743 4339 c-55 -10 -91 -30 -130 -71 -119 -124 -87 -320 66 -400
122 -64 269 -20 334 101 36 66 43 124 24 192 -37 126 -164 204 -294 178z"/>
<path d="M2497 4339 c-120 -29 -197 -123 -197 -244 0 -175 159 -293 332 -245
50 14 132 90 153 142 52 130 -10 280 -136 332 -49 20 -108 26 -152 15z"/>
<path d="M3247 4336 c-149 -41 -229 -201 -172 -344 21 -52 103 -128 153 -142
94 -26 204 2 264 66 66 70 88 195 49 279 -50 110 -179 172 -294 141z"/>
<path d="M1717 3576 c-183 -66 -236 -285 -101 -420 184 -184 492 -1 419 249
-39 135 -190 216 -318 171z"/>
<path d="M2478 3577 c-152 -48 -223 -219 -150 -358 83 -159 294 -186 411 -54
46 53 63 99 63 171 1 169 -165 291 -324 241z"/>
<path d="M3232 3575 c-188 -58 -237 -302 -88 -433 124 -109 323 -67 392 83 51
109 19 242 -75 310 -73 53 -146 66 -229 40z"/>
<path d="M4020 3575 c-102 -32 -173 -130 -172 -239 0 -72 17 -118 63 -171 117
-133 333 -103 413 57 54 109 23 244 -73 313 -73 54 -146 66 -231 40z"/>
<path d="M2480 2821 c-110 -34 -179 -128 -180 -244 0 -97 45 -175 127 -220
135 -72 294 -21 353 115 57 132 3 275 -125 334 -51 24 -124 30 -175 15z"/>
<path d="M3205 2807 c-134 -64 -185 -212 -119 -344 72 -143 244 -184 375 -89
118 87 133 271 31 379 -69 73 -197 97 -287 54z"/>
<path d="M3995 2807 c-98 -48 -147 -126 -147 -233 -1 -194 201 -310 375 -217
82 45 127 123 127 220 -1 141 -97 241 -240 250 -54 3 -74 0 -115 -20z"/>
<path d="M4755 2807 c-213 -102 -194 -407 31 -473 231 -67 416 198 274 394
-67 93 -203 128 -305 79z"/>
<path d="M1712 2041 c-76 -26 -109 -56 -147 -136 -56 -115 -11 -255 103 -322
40 -24 58 -28 122 -28 109 0 184 45 231 137 69 134 -6 309 -150 352 -69 20
-93 20 -159 -3z"/>
<path d="M2493 2050 c-51 -12 -118 -56 -146 -97 -37 -54 -47 -86 -47 -151 1
-185 190 -306 355 -228 97 46 147 125 147 232 1 163 -151 282 -309 244z"/>
<path d="M3230 2045 c-132 -42 -210 -209 -157 -336 38 -92 138 -159 237 -159
211 0 326 243 196 413 -57 74 -183 112 -276 82z"/>
<path d="M4020 2045 c-172 -55 -231 -283 -107 -414 46 -49 121 -81 187 -81
211 0 326 243 196 413 -57 74 -183 112 -276 82z"/>
<path d="M935 1284 c-138 -49 -204 -214 -141 -350 39 -84 134 -144 227 -144
109 0 221 87 244 190 44 202 -140 372 -330 304z"/>
<path d="M1717 1286 c-117 -43 -185 -144 -175 -260 15 -172 191 -283 346 -216
90 39 162 144 162 235 0 83 -66 187 -144 227 -51 26 -139 33 -189 14z"/>
<path d="M2467 1285 c-142 -53 -208 -218 -141 -353 80 -160 296 -190 414 -56
45 52 62 99 62 171 1 173 -175 296 -335 238z"/>
<path d="M3216 1280 c-98 -38 -159 -128 -158 -234 0 -71 17 -118 62 -170 153
-174 440 -63 440 169 0 181 -175 301 -344 235z"/>
<path d="M185 497 c-126 -50 -189 -155 -171 -283 11 -80 64 -151 142 -190 55
-27 165 -26 220 3 79 42 144 145 144 228 0 84 -66 187 -144 227 -48 25 -148
33 -191 15z"/>
<path d="M935 494 c-221 -78 -218 -403 4 -479 190 -64 370 104 326 305 -30
138 -193 223 -330 174z"/>
<path d="M1715 497 c-83 -33 -136 -87 -163 -166 -38 -109 14 -238 120 -296 69
-39 169 -42 234 -8 79 42 144 145 144 228 0 84 -66 187 -144 227 -48 25 -148
33 -191 15z"/>
<path d="M2465 495 c-221 -82 -218 -404 4 -480 94 -32 202 -5 266 67 49 54 67
101 67 173 0 139 -98 243 -237 251 -37 2 -76 -2 -100 -11z"/>
</g>
</svg>
