<?xml version="1.0" standalone="no"?>
<!DOCTYPE svg PUBLIC "-//W3C//DTD SVG 20010904//EN"
 "http://www.w3.org/TR/2001/REC-SVG-20010904/DTD/svg10.dtd">
<svg version="1.0" xmlns="http://www.w3.org/2000/svg"
 width="512.000000pt" height="512.000000pt" viewBox="0 0 512.000000 512.000000"
 preserveAspectRatio="xMidYMid meet">
<metadata>
Created by potrace 1.16, written by Peter Selinger 2001-2019
</metadata>
<g transform="translate(0.000000,512.000000) scale(0.100000,-0.100000)"
fill="#000000" stroke="none">
<path d="M2240 5105 c-462 -60 -856 -222 -1240 -509 -122 -91 -385 -354 -476
-476 -268 -358 -434 -747 -501 -1170 -26 -164 -26 -616 0 -780 82 -519 319
-998 680 -1376 394 -412 874 -667 1441 -766 174 -30 543 -37 727 -13 1188 149
2110 1084 2239 2272 16 145 8 533 -14 667 -184 1134 -1088 2011 -2216 2151
-150 18 -501 18 -640 0z m500 -1822 c360 -88 605 -439 561 -802 -22 -179 -94
-327 -220 -451 -89 -87 -161 -132 -271 -171 -419 -148 -864 92 -975 526 -24
94 -24 256 0 350 51 199 172 363 345 466 169 100 368 129 560 82z"/>
</g>
</svg>
